<?xml version="1.0" encoding="utf-8"?>
<!-- Generator: Adobe Illustrator 17.0.0, SVG Export Plug-In . SVG Version: 6.00 Build 0)  -->
<!DOCTYPE svg PUBLIC "-//W3C//DTD SVG 1.1//EN" "http://www.w3.org/Graphics/SVG/1.1/DTD/svg11.dtd">
<svg version="1.1" id="Layer_3" xmlns="http://www.w3.org/2000/svg" xmlns:xlink="http://www.w3.org/1999/xlink" x="0px" y="0px"
	 width="315px" height="115px" viewBox="0.5 0 315 115" enable-background="new 0.5 0 315 115" xml:space="preserve">
<g>
	<polygon points="139.759,11.296 148.249,19.785 152.328,19.79 139.759,7.221 127.186,19.795 131.27,19.785 	"/>
	<path d="M315.5,60l0-5.004 M315.5,54.996c-0.432,0-0.796,0-1.091,0c-27,0-69.125-1.773-76.027,7.088
		c-0.54,0.694-0.971,1.465-1.379,2.241c-0.151,0.288-0.659,1.458-0.828,1.105c-0.735-1.534-0.579-3.793-0.666-5.442
		c-0.157-2.981-0.206-5.967-0.275-8.951c-0.054-2.299-0.082-4.605-0.261-6.899c-0.03-0.382-0.045-2.356-0.961-1.686
		c-0.912,0.666-0.837,3.161-0.958,4.131c-0.357,2.859-0.608,5.731-0.909,8.596c-0.123,1.169-0.252,2.337-0.413,3.502
		c-0.056,0.407-0.122,0.812-0.199,1.215c-0.014,0.074-0.033,0.146-0.05,0.219c-0.339-0.569-0.533-1.35-0.739-1.903
		c-0.508-1.363-0.969-2.745-1.439-4.122c-0.76-2.226-1.382-4.695-2.552-6.752c-0.453-0.796-1.125-0.706-1.383,0.158
		c-0.589,1.972-0.653,4.185-0.867,6.219c-0.305,2.902-0.569,5.809-0.893,8.709c-0.124,1.11-0.259,2.22-0.43,3.324
		c-0.06,0.389-0.131,0.776-0.214,1.16c-0.028,0.129-0.062,0.255-0.097,0.382c-0.417-0.612-0.597-1.621-0.79-2.247
		c-0.444-1.438-0.823-2.897-1.214-4.35c-0.347-1.288-0.692-2.577-1.083-3.852c-0.202-0.66-0.386-1.562-0.874-2.086
		c-1.161-1.248-1.769,3.221-1.811,3.451c-0.054,0.301-0.121,0.598-0.197,0.894c-0.013,0.049-0.019,0.086-0.027,0.125
		c-0.073-0.216-0.119-0.447-0.17-0.66c-0.296-1.231-0.471-2.495-0.669-3.744c-0.414-2.608-0.69-5.302-1.435-7.842
		c-0.187-0.636-1.026-1.701-1.449-0.538c-0.721,1.986-0.526,4.517-0.611,6.593c-0.105,2.551-0.096,5.137-0.423,7.673
		c-0.016,0.12-0.032,0.246-0.054,0.371c-0.021-0.039-0.043-0.083-0.07-0.138c-0.109-0.224-0.193-0.462-0.28-0.695
		c-0.526-1.4-0.895-2.863-1.336-4.291c-0.169-0.547-0.918-3.91-2.133-2.734c-0.557,0.539-0.614,1.7-0.737,2.402
		c-0.242,1.389-0.378,2.797-0.674,4.177c-0.145-0.893-0.209-1.801-0.285-2.701c-0.227-2.715-0.384-5.437-0.571-8.155
		c-0.185-2.69-0.37-5.383-0.692-8.06c-0.064-0.535-0.127-3.229-0.936-3.37c-1.151-0.201-1.288,1.779-1.412,2.484
		c-0.482,2.739-0.665,5.537-0.941,8.302c-0.123,1.234-0.253,2.467-0.427,3.695c-0.062,0.439-0.138,0.877-0.231,1.311
		c-0.034,0.157-0.077,0.311-0.122,0.464c-0.124,0.416,0.027,0.137-0.156-0.071c-0.92-1.044-1.39-2.62-2.038-3.841
		c-0.358-0.674-0.931-1.884-1.808-2.007c-1.78-0.249-1.365,5.513-1.397,6.441c-0.193,5.53-0.169,11.069-0.184,16.601
		c-0.013,4.953,0.036,9.916-0.172,14.865c-0.022,0.521-0.054,1.041-0.097,1.561c-0.042-0.372-0.06-0.743-0.098-1.004
		c-1.381-9.456-2.025-19.049-2.929-28.558c-0.936-9.85-1.653-19.785-3.171-29.568c-0.055-0.357-0.469-4.313-1.573-2.84
		c-0.542,0.724-0.559,2.105-0.686,2.952c-0.312,2.09-0.521,4.195-0.729,6.297c-1.028,10.396-1.434,20.883-2.794,31.244
		c-0.062,0.471-0.134,0.942-0.221,1.409c-0.194-0.8-0.238-1.687-0.339-2.457c-0.625-4.783-1.017-9.6-1.448-14.404
		c-0.518-5.773-1.008-11.549-1.554-17.319c-0.339-3.581-0.496-7.31-1.286-10.83c-0.099-0.443-0.423-1.082-0.941-0.527
		c-0.568,0.608-0.492,2.196-0.572,2.947c-0.551,5.147-0.773,10.337-1.085,15.503c-0.302,5.004-0.515,10.036-1.095,15.017
		c-0.056,0.478-0.124,0.956-0.214,1.43c-0.609-1.84-0.835-3.856-1.15-5.758c-0.878-5.313-1.498-10.686-2.598-15.96
		c-0.105-0.505-0.257-2.459-1.131-2.264c-1.123,0.251-0.87,3.109-0.906,3.882c-0.132,2.788-0.108,5.582-0.288,8.368
		c-0.031,0.477-0.076,0.953-0.141,1.427c-0.052,0.375-0.041,0.772-0.288,0.648c-1.226-0.617-1.681-2.537-3.236-2.619
		c-1.639-0.087-0.857,7.574-0.834,8.471c0.14,5.5,0.484,11.015,0.357,16.518c-0.017,0.737-0.047,1.478-0.148,2.209
		c-0.017,0.124-0.041,0.252-0.073,0.377c-0.193-0.208-0.33-0.503-0.451-0.747c-1.238-2.482-1.779-5.304-2.796-7.88
		c-0.25-0.632-0.674-1.957-1.454-2.153c-1.429-0.358-3.012,1.408-3.995,2.147c-1.074,0.807-1.105-0.187-1.183-1.029
		c-0.111-1.198-0.069-2.418-0.066-3.62c0.007-3.12-0.028-6.233-0.267-9.345c-0.019-0.247-0.699-0.102-0.697,0.132
		c0.025,2.751-2.645,5.229-4.496,7.032c-0.727,0.624-1.479,1.222-2.253,1.816c-1.026,0.784-2.09,1.565-3.213,2.372
		c-0.054-3.726-0.193-7.421-0.388-10.894c-0.367-6.512-0.904-12.233-1.35-16.017l-2.775-0.139c-0.424,1.817-0.77,3.094-1.018,4.018
		c-0.259,0.927-0.426,1.522-0.566,2.024c-1.44,4.963-2.685,8.808-4.049,12.365c-0.691,1.774-1.416,3.479-2.346,5.135
		c-0.468,0.825-0.991,1.638-1.638,2.388c-0.388,0.444-0.827,0.872-1.341,1.219c-0.132,0.066-0.265,0.128-0.402,0.185
		c-0.587,0.244-0.502-0.928-0.58-1.367c-0.358-2-0.829-3.988-1.36-5.95c-0.071-0.261-0.662-0.091-0.697,0.132
		c-0.67,4.296-1.151,8.91-2.625,13.016c-0.009,0.024-0.011,0.039-0.018,0.06c-0.089-0.267-0.139-0.552-0.193-0.824
		c-0.246-1.226-0.374-2.479-0.52-3.72c-0.312-2.662-0.517-5.354-1.029-7.988c-0.169-0.867-0.635-2.301-1.619-1.116
		c-1.518,1.828-1.714,4.711-2.797,6.794c-0.001,0.002-0.001,0.005-0.002,0.007c-0.009-0.042-0.019-0.086-0.035-0.143
		c-0.108-0.378-0.163-0.773-0.224-1.159c-0.208-1.313-0.328-2.643-0.457-3.966c-0.262-2.682-0.431-5.383-0.83-8.05
		c-0.06-0.402-0.443-2.261-1.155-1.149c-0.772,1.205-0.855,3.243-1.128,4.605c-1.039,5.184-1.765,10.499-3.23,15.586
		c-0.093,0.324-0.198,0.647-0.326,0.96c-0.174-0.457-0.194-1.084-0.254-1.499c-0.341-2.366-0.477-4.767-0.645-7.15
		c-0.352-4.995-0.352-10.161-1.268-15.095c-0.109-0.588-0.409-1.664-1.183-0.943c-0.992,0.925-1.04,3.606-1.251,4.822
		c-0.495,2.855-0.897,5.725-1.377,8.582c-0.187,1.113-0.388,2.224-0.64,3.324c-0.086,0.373-0.186,0.743-0.306,1.106
		c-0.209,0.634,0.001,0.429-0.223,0.124c-1.492-2.033-1.887-5.231-2.669-7.59c-0.101-0.304-0.989-2.798-1.59-1.396
		c-0.74,1.728-0.575,4.182-0.742,6.019c-0.24,2.642-0.407,5.343-0.998,7.936c-0.075,0.33-0.169,0.662-0.317,0.968
		c-0.016-0.04-0.037-0.088-0.068-0.148c-0.353-0.703-0.52-1.523-0.708-2.281c-0.635-2.558-1.083-5.166-1.557-7.757
		c-0.513-2.799-1.004-5.603-1.578-8.391c-0.283-1.373-0.443-3.325-1.3-4.498c-0.532-0.727-1.136,0.404-1.263,0.802
		c-0.595,1.868-0.77,3.92-1.035,5.853c-0.751,5.472-1.244,10.986-2.166,16.433c-0.132,0.783-0.279,1.566-0.491,2.332
		c-0.024,0.088-0.053,0.174-0.082,0.26c-0.003-0.008-0.005-0.014-0.007-0.022c-0.576-1.705-0.609-3.694-0.775-5.469
		c-0.518-5.511-0.758-11.048-1.357-16.551c-0.099-0.906-0.026-3.029-0.772-3.724c-0.729-0.679-1.086,0.9-1.142,1.25
		c-0.804,5.006-0.474,10.298-0.642,15.352c-0.073,2.186-0.103,4.416-0.462,6.578c-0.033,0.2-0.08,0.397-0.137,0.592
		c-0.007-0.054-0.018-0.113-0.042-0.182c-0.342-1.004-0.319-2.189-0.368-3.235c-0.129-2.743-0.034-5.497-0.256-8.235
		c-0.066-0.81-0.446-2.855-1.597-1.465c-0.616,0.744-0.538,2.133-0.758,3.033c-0.317,1.299-0.53,0.343-0.76-0.35
		c-0.657-1.979-1.05-4.062-1.478-6.099c-1.16-5.521-2.127-11.08-3.208-16.617c-0.288-1.476-0.499-3.04-0.999-4.465
		c-0.326-0.929-1,0.202-1.105,0.619c-0.726,2.875-1.067,5.864-1.681,8.765c-0.886,4.187-2.029,8.357-3.773,12.274
		c-2.758-5.751-2.774-12.677-2.802-18.912c-0.007-1.49,0.293-3.454-0.204-4.898c-0.25-0.726-0.967,0.016-1.062,0.423
		c-0.377,1.619-0.308,3.413-0.385,5.063c-0.148,3.129-0.291,6.258-0.51,9.383c-0.438,6.263-1.051,12.711-2.894,18.754
		c-0.285-7.469-0.45-14.943-0.659-22.415c-0.162-5.814-0.043-11.79-0.829-17.564c-0.055-0.405-0.38-1.796-1.039-0.909
		c-0.739,0.994-0.401,3.438-0.431,4.575c-0.204,7.734-0.109,15.47-0.435,23.202c-0.283,6.69-0.864,13.374-1.221,20.062
		c-0.339,6.345-0.573,12.721-1.246,19.042c-0.053,0.499-0.111,1-0.191,1.496c-0.226-1.13-0.327-2.298-0.462-3.434
		c-0.622-5.22-1.082-10.46-1.567-15.694c-0.5-5.391-0.975-10.784-1.534-16.169c-0.161-1.553-0.314-3.111-0.559-4.653
		c-0.065-0.412-0.216-1.45-0.885-0.83c-0.932,0.864-0.992,3.548-1.216,4.695c-0.55,2.808-1.045,5.629-1.674,8.421
		c-0.178,0.788-0.353,1.606-0.645,2.367c-0.062-0.238-0.109-0.482-0.153-0.722c-0.406-2.254-0.563-4.565-0.773-6.843
		c-0.439-4.741-0.552-9.672-1.584-14.333c-0.126-0.569-0.38-1.55-1.154-1.023c-0.819,0.558-0.661,2.886-0.756,3.716
		c-0.29,2.528-0.762,5.049-1.808,7.384C33.393,54.076,29.409,59.827,0,55c0,0.438,0,3.872,0,5
		c26.284-0.715,32.328-4.638,33.927-6.636c1.733-2.165,2.591-4.798,3.102-7.49c0.347-1.829,0.317-3.775,0.762-5.582
		c0.054,0.169,0.098,0.341,0.138,0.511c0.224,0.943,0.339,1.915,0.462,2.875c0.696,5.432,0.976,10.908,1.619,16.346
		c0.06,0.509,0.088,3.175,0.809,3.346c1.052,0.25,1.317-1.895,1.466-2.486c0.682-2.715,1.147-5.488,1.674-8.237
		c0.23-1.199,0.463-2.398,0.725-3.59c0.074-0.335,0.158-0.668,0.245-1c0.138,0.718,0.141,1.532,0.217,2.171
		c0.249,2.124,0.455,4.253,0.661,6.382c0.555,5.732,1.063,11.468,1.606,17.201c0.427,4.498,0.793,9.021,1.464,13.491
		c0.051,0.338,0.088,1.799,0.576,1.894c0.938,0.182,0.937-1.541,1.006-2.066c0.798-6.011,0.932-12.147,1.258-18.196
		c0.355-6.599,0.858-13.189,1.217-19.785c0.405-7.439,0.383-14.893,0.48-22.339c0.025-1.963,0.008-3.951,0.186-5.911
		c0.035,0.317,0.059,0.636,0.087,0.948c0.536,5.877,0.563,11.819,0.726,17.714c0.209,7.583,0.373,15.168,0.684,22.747
		c0.012,0.286,0.633,0.047,0.697-0.132c3.833-10.76,3.362-22.445,4.241-33.669c0.007-0.09,0.015-0.18,0.022-0.27
		c0.124,1.901,0.019,3.837,0.047,5.736c0.085,5.804,0.355,12.173,3.119,17.412c0.115,0.218,0.578,0.128,0.674-0.076
		c3.215-6.84,4.23-14.224,5.755-21.541c0.002-0.007,0.003-0.015,0.004-0.022c0.117,0.455,0.209,0.918,0.307,1.375
		c0.497,2.314,0.92,4.645,1.358,6.971c1.017,5.402,1.946,10.843,3.268,16.181c0.169,0.683,0.42,2.848,1.182,3.219
		c1.632,0.795,1.825-2.986,2.013-3.67c0.234-0.852,0.292-0.047,0.357,0.306c0.085,0.46,0.112,0.932,0.145,1.397
		c0.106,1.513,0.106,3.035,0.133,4.551c0.036,2.061-0.271,4.722,0.553,6.661c0.371,0.873,1.177,0.21,1.352-0.382
		c0.539-1.822,0.454-3.942,0.533-5.82c0.222-5.302,0.064-10.658,0.6-15.942c0.033-0.329,0.054-0.712,0.128-1.069
		c0.081,0.29,0.136,0.589,0.188,0.884c0.39,2.21,0.527,4.476,0.708,6.709c0.428,5.301,0.6,10.667,1.391,15.931
		c0.072,0.479,0.149,2.334,0.993,2.188c0.911-0.157,1.01-1.854,1.144-2.528c1.044-5.288,1.464-10.714,2.159-16.055
		c0.285-2.187,0.549-4.399,1.049-6.55c0.065-0.279,0.142-0.554,0.235-0.824c0.285,0.475,0.393,1.189,0.519,1.668
		c1.376,5.223,2.039,10.64,3.108,15.93c0.333,1.648,0.544,3.675,1.387,5.165c0.487,0.863,1.239,0.154,1.489-0.49
		c0.858-2.209,0.859-4.931,1.081-7.26c0.214-2.242,0.283-4.555,0.708-6.774c0.14,0.324,0.248,0.667,0.361,0.998
		c0.476,1.393,0.874,2.813,1.321,4.216c0.263,0.826,0.919,4.157,2.281,3.892c1.005-0.196,1.171-2.82,1.306-3.521
		c0.539-2.787,0.926-5.604,1.373-8.406c0.315-1.971,0.47-4.265,1.241-6.148c0.052,0.179,0.092,0.363,0.128,0.543
		c0.182,0.91,0.269,1.841,0.363,2.763c0.558,5.487,0.747,11.005,1.228,16.499c0.13,1.483,0.083,3.37,0.714,4.755
		c0.363,0.797,1.103-0.132,1.264-0.545c0.752-1.929,1.095-4.052,1.51-6.07c0.589-2.86,1.119-5.732,1.672-8.598
		c0.356-1.845,0.66-3.734,1.175-5.547c0.016,0.093,0.031,0.186,0.046,0.277c0.209,1.202,0.311,2.427,0.43,3.64
		c0.273,2.78,0.465,5.572,0.854,8.339c0.058,0.416,0.315,2.935,1.329,1.827c1.508-1.648,1.777-4.632,2.735-6.614
		c0.089-0.184,0.197-0.362,0.319-0.528c0.012,0.026,0.029,0.062,0.053,0.121c0.139,0.333,0.204,0.704,0.278,1.055
		c0.262,1.252,0.4,2.533,0.552,3.802c0.324,2.699,0.503,5.443,1.038,8.111c0.164,0.819,0.812,1.87,1.421,0.642
		c1.052-2.122,1.283-4.881,1.711-7.179c0.276-1.48,0.53-2.964,0.773-4.45c0.494,1.982,0.914,3.984,1.221,6.001
		c0.018,0.117,0.221,0.134,0.305,0.118c1.364-0.258,2.475-1.027,3.419-1.991c0.603-0.535,1.141-1.116,1.637-1.714
		c1.276-1.553,2.302-3.207,3.24-4.95c1.697-3.197,3.117-6.718,4.487-11.161c0.209,2.503,0.409,5.276,0.574,8.204
		c0.228,4.047,0.382,8.395,0.409,12.731c-1.425,1.007-2.95,2.081-4.612,3.275c-1.148,0.825-2.877,2.061-5.01,3.623
		c-1.067,0.783-2.23,1.644-3.474,2.594c-0.63,0.477-1.245,0.956-1.908,1.474c-0.33,0.269-0.664,0.541-1.002,0.817
		s-0.663,0.579-1.001,0.872c-2.654,2.393-5.285,5.409-7.116,9.105c-0.903,1.846-1.613,3.853-1.931,5.972
		c-0.331,2.11-0.255,4.34,0.37,6.446c0.618,2.108,1.863,4.034,3.478,5.445c0.208,0.167,0.416,0.334,0.624,0.501
		c0.207,0.166,0.455,0.317,0.682,0.473c0.112,0.072,0.24,0.163,0.34,0.219l0.301,0.169l0.3,0.169l0.075,0.042l0.037,0.021
		l0.071,0.037l0.021,0.01l0.166,0.078c0.443,0.204,0.875,0.418,1.318,0.607c0.455,0.171,0.901,0.348,1.352,0.506
		c1.818,0.601,3.766,0.863,5.606,0.588c1.842-0.259,3.483-1.064,4.706-2.035c1.237-0.973,2.109-2.066,2.795-3.046
		c0.166-0.249,0.334-0.487,0.482-0.722c0.139-0.238,0.273-0.468,0.402-0.688c0.269-0.437,0.456-0.857,0.651-1.227
		c0.197-0.37,0.332-0.711,0.466-1.002c0.127-0.293,0.247-0.539,0.321-0.744c0.159-0.407,0.243-0.622,0.243-0.622
		s0.069-0.177,0.2-0.513c0.116-0.339,0.287-0.838,0.506-1.479c0.411-1.286,0.931-3.154,1.401-5.459
		c0.968-4.61,1.642-10.968,1.868-17.786c0.074-2.147,0.102-4.341,0.102-6.541c1.661-1.333,3.157-2.633,4.544-3.991
		c1.411-1.384,2.714-2.837,3.837-4.512c0.549-0.846,1.051-1.752,1.408-2.748c0.103-0.288,0.191-0.585,0.263-0.888
		c0.117,3.686-0.09,7.391,0.249,11.053c0.228,2.456,2.148,0.938,3.349-0.036c0.647-0.525,1.814-1.651,2.502-0.734
		c0.335,0.446,0.543,1.006,0.754,1.518c0.58,1.403,1.013,2.87,1.483,4.312c0.31,0.953,1.016,4.669,2.417,4.743
		c1.733,0.092,0.952-7.808,0.931-8.746c-0.121-5.412-0.455-10.83-0.381-16.244c0.01-0.737,0.031-1.477,0.117-2.209
		c0.024-0.205,0.06-0.408,0.122-0.605c-0.007,0.021,1.539,1.529,1.794,1.817c1.056,1.192,2.117,1.345,2.381-0.309
		c0.406-2.549,0.289-5.221,0.36-7.793c0.034-1.238,0.075-2.477,0.176-3.712c0.033-0.404,0.082-0.805,0.154-1.203
		c0.596,1.531,0.739,3.365,1.007,4.952c0.478,2.834,0.896,5.678,1.333,8.518c0.396,2.571,0.786,5.145,1.29,7.698
		c0.106,0.538,0.282,2.793,1.032,2.947c1.468,0.301,1.439-6.403,1.496-7.15c0.433-5.698,0.724-11.406,1.087-17.108
		c0.158-2.482,0.322-4.964,0.542-7.441c0.089-1.007,0.128-2.094,0.327-3.117c0.083,0.423,0.15,0.851,0.211,1.276
		c0.27,1.865,0.459,3.743,0.651,5.618c1.109,10.851,1.844,21.738,3.031,32.581c0.073,0.666,0.268,6.368,1.417,6.133
		c0.621-0.127,0.641-1.24,0.717-1.704c0.283-1.733,0.44-3.49,0.609-5.237c1.036-10.656,1.526-21.38,2.88-32.004
		c0.146-1.147,0.258-2.36,0.583-3.483c0.075,0.27,0.128,0.548,0.183,0.82c0.703,3.484,1.012,7.069,1.398,10.597
		c1.241,11.333,2.231,22.693,3.334,34.04c0.429,4.408,0.851,8.82,1.395,13.215c0.055,0.445,0.234,4.835,1.339,4.107
		c0.529-0.348,0.415-1.663,0.448-2.184c0.123-1.949,0.14-3.906,0.165-5.857c0.073-5.682,0.046-11.365,0.082-17.048
		c0.029-4.593-0.049-9.247,0.409-13.823c0.049-0.489,0.107-0.984,0.234-1.46c0.103-0.385-0.045-0.151,0.291,0.141
		c0.621,0.539,1.013,1.448,1.376,2.157c0.345,0.675,1.574,4.463,2.899,3.58c0.994-0.662,0.878-3.72,0.987-4.717
		c0.311-2.847,0.526-5.705,0.912-8.543c0.125-0.919,0.259-1.855,0.544-2.741c0.015-0.046,0.022-0.08,0.031-0.116
		c0.102,0.242,0.156,0.512,0.212,0.763c0.49,2.181,0.594,4.478,0.772,6.699c0.386,4.832,0.306,9.847,1.157,14.627
		c0.171,0.962,0.938,0.755,1.227-0.067c0.399-1.132,0.46-2.435,0.635-3.616c0.097-0.655,0.204-1.308,0.337-1.956
		c0.052-0.255,0.121-0.506,0.195-0.755c0.183-0.618,0.039-0.369,0.143-0.224c0.694,0.959,0.943,2.425,1.277,3.537
		c0.398,1.324,0.745,2.683,1.301,3.952c0.447,1.019,1.261,0.878,1.464-0.154c0.919-4.66-0.14-9.644,0.988-14.27
		c0.011,0.037,0.02,0.073,0.037,0.116c0.159,0.398,0.253,0.825,0.352,1.241c0.323,1.355,0.533,2.739,0.755,4.113
		c0.386,2.396,0.566,4.945,1.302,7.267c0.099,0.312,0.276,0.637,0.66,0.52c0.748-0.228,0.814-1.172,0.941-1.83
		c0.131-0.681,0.23-1.367,0.372-2.046c0.059-0.285,0.143-0.56,0.257-0.827c0.016,0.03,0.034,0.064,0.058,0.111
		c0.496,0.966,0.743,2.1,1.037,3.137c0.758,2.674,1.364,5.404,2.291,8.027c0.175,0.495,0.879,2.245,1.583,1.141
		c0.806-1.264,0.715-3.584,0.88-5.01c0.334-2.891,0.595-5.79,0.893-8.685c0.22-2.134,0.36-4.341,0.869-6.432
		c0.004-0.017,0.01-0.032,0.015-0.049c0.149,0.244,0.258,0.524,0.371,0.776c0.528,1.177,0.943,2.409,1.37,3.625
		c0.9,2.565,1.695,5.177,2.721,7.697c0.167,0.409,0.929,2.137,1.504,0.996c0.763-1.514,0.655-3.845,0.829-5.487
		c0.304-2.865,0.561-5.735,0.909-8.596c0.12-0.983,0.25-1.968,0.449-2.939c0.291,1.938,0.243,3.964,0.295,5.913
		c0.133,5.049-0.194,10.395,0.767,15.374c0.654,3.392,3.093-1.937,3.62-2.533C246.663,53.539,288.484,60,314.413,60
		c0.261,0,0.624,0,1.087,0 M140.416,70.25c-0.218,6.706-0.879,12.911-1.802,17.319c-0.449,2.207-0.938,3.966-1.32,5.164
		c-0.202,0.593-0.36,1.055-0.467,1.369c-0.12,0.307-0.183,0.469-0.183,0.469s-0.077,0.197-0.222,0.569
		c-0.068,0.189-0.176,0.407-0.291,0.671c-0.12,0.261-0.242,0.573-0.417,0.896c-0.173,0.324-0.339,0.704-0.572,1.077
		c-0.111,0.19-0.227,0.389-0.347,0.595c-0.126,0.2-0.268,0.398-0.408,0.608c-0.575,0.823-1.29,1.704-2.218,2.43
		c-0.925,0.727-2.061,1.275-3.377,1.463c-1.312,0.196-2.801,0.023-4.32-0.48c-0.378-0.134-0.758-0.287-1.144-0.429
		c-0.381-0.164-0.761-0.354-1.147-0.53l-0.145-0.067l-0.018-0.008c0.004,0.002,0.002,0.001-0.002-0.001l-0.004-0.002l-0.075-0.042
		l-0.3-0.169l-0.301-0.169c-0.102-0.057-0.159-0.107-0.241-0.161c-0.152-0.111-0.307-0.196-0.463-0.324l-0.472-0.378
		c-1.21-1.068-2.142-2.491-2.624-4.127c-0.483-1.634-0.561-3.435-0.281-5.207c0.266-1.777,0.876-3.518,1.673-5.147
		c1.615-3.266,4.01-6.037,6.469-8.252c0.314-0.272,0.613-0.553,0.928-0.81c0.315-0.257,0.626-0.511,0.933-0.761
		c0.644-0.499,1.271-0.984,1.878-1.453c1.213-0.928,2.371-1.786,3.425-2.562c2.126-1.544,3.84-2.789,4.982-3.619
		c1.042-0.755,2.026-1.477,2.96-2.179C140.489,67.431,140.463,68.853,140.416,70.25z"/>
</g>
</svg>
